<svg xmlns="http://www.w3.org/2000/svg" xmlns:xlink="http://www.w3.org/1999/xlink" width="336" zoomAndPan="magnify" viewBox="0 0 252 359.999987" height="480" preserveAspectRatio="xMidYMid meet" version="1.0"><defs><g/></defs><rect x="-25.2" width="302.4" fill="#ffffff" y="-35.999999" height="431.999984" fill-opacity="1"/><rect x="-25.2" width="302.4" fill="#1a2338" y="-35.999999" height="431.999984" fill-opacity="1"/><g fill="#6d8cd3" fill-opacity="1"><g transform="translate(108.407235, 162.094741)"><g><path d="M -0.328125 1.96875 C -0.597656 0.238281 -0.617188 -1.617188 -0.390625 -3.609375 C -0.171875 -5.609375 0.15625 -7.625 0.59375 -9.65625 C 1.039062 -11.6875 1.53125 -13.695312 2.0625 -15.6875 C 2.59375 -17.6875 3.023438 -19.554688 3.359375 -21.296875 L 3.390625 -21.625 L 3.140625 -21.78125 C 2.671875 -21.707031 2.226562 -21.566406 1.8125 -21.359375 C 1.394531 -21.148438 0.957031 -21.007812 0.5 -20.9375 C 0.0820312 -20.875 -0.28125 -20.988281 -0.59375 -21.28125 C -0.914062 -21.570312 -1.109375 -21.914062 -1.171875 -22.3125 C -1.203125 -22.488281 -1.078125 -22.675781 -0.796875 -22.875 C -0.523438 -23.082031 -0.207031 -23.269531 0.15625 -23.4375 C 0.53125 -23.601562 0.894531 -23.753906 1.25 -23.890625 C 1.613281 -24.023438 1.867188 -24.101562 2.015625 -24.125 C 2.890625 -24.269531 3.507812 -24.617188 3.875 -25.171875 C 4.238281 -25.722656 4.492188 -26.300781 4.640625 -26.90625 C 4.785156 -27.507812 4.867188 -28.0625 4.890625 -28.5625 C 4.921875 -29.0625 5.054688 -29.332031 5.296875 -29.375 C 5.640625 -29.425781 6.050781 -29.363281 6.53125 -29.1875 C 7.007812 -29.019531 7.28125 -28.738281 7.34375 -28.34375 C 7.394531 -28 7.359375 -27.671875 7.234375 -27.359375 C 7.109375 -27.046875 7.066406 -26.765625 7.109375 -26.515625 C 7.148438 -26.273438 7.253906 -26.128906 7.421875 -26.078125 C 7.585938 -26.023438 7.757812 -26.007812 7.9375 -26.03125 C 8.945312 -26.195312 9.9375 -26.472656 10.90625 -26.859375 C 11.875 -27.242188 12.863281 -27.519531 13.875 -27.6875 C 14.082031 -27.71875 14.328125 -27.691406 14.609375 -27.609375 C 14.890625 -27.535156 15.148438 -27.421875 15.390625 -27.265625 C 15.628906 -27.117188 15.84375 -26.9375 16.03125 -26.71875 C 16.226562 -26.5 16.34375 -26.28125 16.375 -26.0625 C 16.414062 -25.820312 16.207031 -25.597656 15.75 -25.390625 C 15.289062 -25.191406 14.703125 -25.003906 13.984375 -24.828125 C 13.265625 -24.660156 12.484375 -24.484375 11.640625 -24.296875 C 10.796875 -24.117188 9.992188 -23.9375 9.234375 -23.75 C 8.484375 -23.570312 7.832031 -23.367188 7.28125 -23.140625 C 6.738281 -22.921875 6.425781 -22.675781 6.34375 -22.40625 C 6.144531 -21.757812 5.882812 -20.773438 5.5625 -19.453125 C 5.238281 -18.140625 4.890625 -16.679688 4.515625 -15.078125 C 4.140625 -13.472656 3.769531 -11.789062 3.40625 -10.03125 C 3.050781 -8.28125 2.738281 -6.601562 2.46875 -5 C 2.195312 -3.40625 1.992188 -1.988281 1.859375 -0.75 C 1.734375 0.476562 1.71875 1.378906 1.8125 1.953125 C 1.851562 2.203125 2 2.304688 2.25 2.265625 C 2.539062 2.222656 2.960938 1.875 3.515625 1.21875 C 4.078125 0.5625 4.679688 -0.226562 5.328125 -1.15625 C 5.984375 -2.082031 6.671875 -3.09375 7.390625 -4.1875 C 8.109375 -5.28125 8.796875 -6.300781 9.453125 -7.25 C 10.117188 -8.195312 10.707031 -8.992188 11.21875 -9.640625 C 11.738281 -10.285156 12.15625 -10.628906 12.46875 -10.671875 L 13.125 -10.40625 C 12.875 -10.03125 12.472656 -9.40625 11.921875 -8.53125 C 11.367188 -7.664062 10.722656 -6.691406 9.984375 -5.609375 C 9.253906 -4.523438 8.472656 -3.398438 7.640625 -2.234375 C 6.804688 -1.066406 6.003906 0 5.234375 0.96875 C 4.460938 1.9375 3.753906 2.738281 3.109375 3.375 C 2.460938 4.019531 1.96875 4.367188 1.625 4.421875 C 1.332031 4.460938 1.066406 4.398438 0.828125 4.234375 C 0.597656 4.078125 0.398438 3.867188 0.234375 3.609375 C 0.0664062 3.359375 -0.0546875 3.082031 -0.140625 2.78125 C -0.222656 2.476562 -0.285156 2.207031 -0.328125 1.96875 Z M -0.328125 1.96875 "/></g></g></g><g fill="#6d8cd3" fill-opacity="1"><g transform="translate(120.52627, 160.184387)"><g><path d="M 12.28125 -12.859375 C 12.351562 -12.367188 12.304688 -11.726562 12.140625 -10.9375 C 11.984375 -10.144531 11.796875 -9.359375 11.578125 -8.578125 C 11.359375 -7.796875 11.160156 -7.066406 10.984375 -6.390625 C 10.816406 -5.722656 10.75 -5.265625 10.78125 -5.015625 L 10.875 -4.765625 C 11.707031 -5.421875 12.507812 -6.179688 13.28125 -7.046875 C 14.050781 -7.921875 14.804688 -8.804688 15.546875 -9.703125 C 16.296875 -10.597656 17.054688 -11.484375 17.828125 -12.359375 C 18.597656 -13.242188 19.394531 -14.03125 20.21875 -14.71875 C 20.195312 -14.644531 20.222656 -14.535156 20.296875 -14.390625 C 20.367188 -14.253906 20.421875 -14.15625 20.453125 -14.09375 C 20.441406 -14.007812 20.195312 -13.640625 19.71875 -12.984375 C 19.238281 -12.328125 18.632812 -11.535156 17.90625 -10.609375 C 17.1875 -9.679688 16.394531 -8.6875 15.53125 -7.625 C 14.664062 -6.5625 13.847656 -5.582031 13.078125 -4.6875 C 12.316406 -3.789062 11.648438 -3.035156 11.078125 -2.421875 C 10.503906 -1.816406 10.140625 -1.503906 9.984375 -1.484375 C 9.378906 -1.378906 8.878906 -1.515625 8.484375 -1.890625 C 8.097656 -2.273438 7.863281 -2.738281 7.78125 -3.28125 C 7.675781 -3.9375 7.722656 -4.679688 7.921875 -5.515625 C 8.117188 -6.359375 8.351562 -7.207031 8.625 -8.0625 C 8.894531 -8.914062 9.140625 -9.734375 9.359375 -10.515625 C 9.578125 -11.304688 9.648438 -11.945312 9.578125 -12.4375 C 9.140625 -12.207031 8.644531 -11.703125 8.09375 -10.921875 C 7.539062 -10.148438 7.007812 -9.300781 6.5 -8.375 C 6 -7.445312 5.535156 -6.535156 5.109375 -5.640625 C 4.691406 -4.753906 4.375 -4.066406 4.15625 -3.578125 C 3.6875 -2.429688 3.378906 -1.242188 3.234375 -0.015625 C 3.085938 1.203125 2.929688 2.421875 2.765625 3.640625 C 2.742188 3.921875 2.726562 4.21875 2.71875 4.53125 C 2.71875 4.851562 2.519531 5.046875 2.125 5.109375 C 1.675781 5.179688 1.242188 5.078125 0.828125 4.796875 C 0.410156 4.523438 0.164062 4.15625 0.09375 3.6875 C 0.0390625 3.300781 0.0625 2.515625 0.15625 1.328125 C 0.257812 0.148438 0.414062 -1.207031 0.625 -2.75 C 0.84375 -4.289062 1.082031 -5.929688 1.34375 -7.671875 C 1.601562 -9.421875 1.863281 -11.097656 2.125 -12.703125 C 2.394531 -14.304688 2.640625 -15.734375 2.859375 -16.984375 C 3.085938 -18.242188 3.269531 -19.164062 3.40625 -19.75 L 5.171875 -28.421875 C 5.210938 -28.523438 5.242188 -28.65625 5.265625 -28.8125 C 5.285156 -28.96875 5.375 -29.0625 5.53125 -29.09375 C 5.71875 -29.113281 5.929688 -29.082031 6.171875 -29 C 6.421875 -28.914062 6.660156 -28.796875 6.890625 -28.640625 C 7.128906 -28.484375 7.335938 -28.3125 7.515625 -28.125 C 7.703125 -27.9375 7.8125 -27.753906 7.84375 -27.578125 C 7.914062 -27.085938 7.867188 -26.328125 7.703125 -25.296875 C 7.535156 -24.273438 7.3125 -23.109375 7.03125 -21.796875 C 6.75 -20.484375 6.445312 -19.125 6.125 -17.71875 C 5.8125 -16.3125 5.519531 -14.972656 5.25 -13.703125 C 4.976562 -12.441406 4.769531 -11.332031 4.625 -10.375 C 4.476562 -9.414062 4.457031 -8.757812 4.5625 -8.40625 C 4.875 -8.863281 5.226562 -9.425781 5.625 -10.09375 C 6.019531 -10.757812 6.457031 -11.421875 6.9375 -12.078125 C 7.425781 -12.742188 7.945312 -13.320312 8.5 -13.8125 C 9.050781 -14.300781 9.597656 -14.59375 10.140625 -14.6875 C 10.691406 -14.769531 11.164062 -14.613281 11.5625 -14.21875 C 11.957031 -13.832031 12.195312 -13.378906 12.28125 -12.859375 Z M 12.28125 -12.859375 "/></g></g></g><g fill="#6d8cd3" fill-opacity="1"><g transform="translate(135.114845, 157.884754)"><g><path d="M 3.140625 -0.0625 C 2.484375 0.0078125 1.914062 -0.0664062 1.4375 -0.296875 C 0.96875 -0.523438 0.582031 -0.84375 0.28125 -1.25 C -0.0078125 -1.65625 -0.234375 -2.109375 -0.390625 -2.609375 C -0.546875 -3.109375 -0.632812 -3.628906 -0.65625 -4.171875 C -0.695312 -5.066406 -0.566406 -6.109375 -0.265625 -7.296875 C 0.0234375 -8.484375 0.4375 -9.613281 0.96875 -10.6875 C 1.5 -11.769531 2.117188 -12.710938 2.828125 -13.515625 C 3.546875 -14.316406 4.316406 -14.785156 5.140625 -14.921875 C 5.898438 -15.035156 6.59375 -14.8125 7.21875 -14.25 C 7.84375 -13.695312 8.210938 -13.054688 8.328125 -12.328125 C 8.421875 -11.679688 8.273438 -10.921875 7.890625 -10.046875 C 7.515625 -9.179688 7.039062 -8.359375 6.46875 -7.578125 C 5.894531 -6.804688 5.273438 -6.132812 4.609375 -5.5625 C 3.953125 -4.988281 3.390625 -4.664062 2.921875 -4.59375 C 2.765625 -4.570312 2.613281 -4.585938 2.46875 -4.640625 C 2.332031 -4.703125 2.195312 -4.75 2.0625 -4.78125 C 1.894531 -4.601562 1.800781 -4.359375 1.78125 -4.046875 C 1.769531 -3.742188 1.8125 -3.453125 1.90625 -3.171875 C 2 -2.890625 2.140625 -2.65625 2.328125 -2.46875 C 2.515625 -2.289062 2.753906 -2.226562 3.046875 -2.28125 C 3.609375 -2.363281 4.253906 -2.625 4.984375 -3.0625 C 5.710938 -3.507812 6.492188 -4.0625 7.328125 -4.71875 C 8.160156 -5.382812 9.007812 -6.113281 9.875 -6.90625 C 10.75 -7.695312 11.578125 -8.476562 12.359375 -9.25 C 13.140625 -10.03125 13.859375 -10.769531 14.515625 -11.46875 C 15.179688 -12.164062 15.710938 -12.753906 16.109375 -13.234375 L 16.5 -13.375 L 16.5 -13.34375 L 16.6875 -13.140625 L 16.6875 -13.09375 C 16.25 -12.457031 15.707031 -11.710938 15.0625 -10.859375 C 14.425781 -10.003906 13.726562 -9.109375 12.96875 -8.171875 C 12.207031 -7.242188 11.40625 -6.316406 10.5625 -5.390625 C 9.71875 -4.460938 8.875 -3.613281 8.03125 -2.84375 C 7.1875 -2.082031 6.34375 -1.445312 5.5 -0.9375 C 4.664062 -0.4375 3.878906 -0.144531 3.140625 -0.0625 Z M 3.421875 -8.234375 C 3.992188 -8.671875 4.488281 -9.15625 4.90625 -9.6875 C 5.332031 -10.21875 5.671875 -10.832031 5.921875 -11.53125 L 5.90625 -11.578125 L 5.890625 -11.75 C 5.648438 -11.59375 5.40625 -11.367188 5.15625 -11.078125 C 4.914062 -10.785156 4.664062 -10.460938 4.40625 -10.109375 C 4.15625 -9.753906 3.925781 -9.40625 3.71875 -9.0625 C 3.519531 -8.726562 3.375 -8.441406 3.28125 -8.203125 Z M 3.421875 -8.234375 "/></g></g></g><g fill="#6d8cd3" fill-opacity="1"><g transform="translate(73.007103, 214.714336)"><g><path d="M 3.90625 -3.84375 C 4.144531 -3.957031 4.613281 -4.316406 5.3125 -4.921875 C 6.007812 -5.535156 6.828125 -6.269531 7.765625 -7.125 C 8.710938 -7.988281 9.707031 -8.910156 10.75 -9.890625 C 11.800781 -10.867188 12.78125 -11.765625 13.6875 -12.578125 C 14.601562 -13.390625 15.367188 -14.066406 15.984375 -14.609375 C 16.597656 -15.148438 16.972656 -15.429688 17.109375 -15.453125 C 17.316406 -15.492188 17.5 -15.550781 17.65625 -15.625 C 17.820312 -15.695312 17.960938 -15.648438 18.078125 -15.484375 C 18.023438 -15.265625 17.617188 -14.726562 16.859375 -13.875 C 16.109375 -13.03125 15.191406 -12.035156 14.109375 -10.890625 C 13.023438 -9.753906 11.851562 -8.550781 10.59375 -7.28125 C 9.34375 -6.007812 8.15625 -4.832031 7.03125 -3.75 C 5.90625 -2.675781 4.9375 -1.78125 4.125 -1.0625 C 3.320312 -0.351562 2.851562 0.0078125 2.71875 0.03125 C 2.34375 0.09375 1.96875 0.046875 1.59375 -0.109375 C 1.21875 -0.273438 0.878906 -0.503906 0.578125 -0.796875 C 0.273438 -1.085938 0.0195312 -1.421875 -0.1875 -1.796875 C -0.394531 -2.179688 -0.53125 -2.566406 -0.59375 -2.953125 C -0.707031 -3.660156 -0.679688 -4.632812 -0.515625 -5.875 C -0.347656 -7.125 -0.113281 -8.429688 0.1875 -9.796875 C 0.488281 -11.160156 0.8125 -12.472656 1.15625 -13.734375 C 1.5 -14.992188 1.78125 -16.003906 2 -16.765625 C 2.082031 -17.035156 2.265625 -17.644531 2.546875 -18.59375 C 2.828125 -19.539062 3.128906 -20.535156 3.453125 -21.578125 C 3.785156 -22.617188 4.113281 -23.550781 4.4375 -24.375 C 4.769531 -25.195312 5.019531 -25.625 5.1875 -25.65625 C 5.894531 -25.769531 6.601562 -25.632812 7.3125 -25.25 C 8.019531 -24.863281 8.523438 -24.351562 8.828125 -23.71875 C 8.691406 -23.300781 8.457031 -22.570312 8.125 -21.53125 C 7.789062 -20.5 7.441406 -19.296875 7.078125 -17.921875 C 6.710938 -16.554688 6.328125 -15.109375 5.921875 -13.578125 C 5.523438 -12.054688 5.160156 -10.625 4.828125 -9.28125 C 4.503906 -7.9375 4.257812 -6.765625 4.09375 -5.765625 C 3.925781 -4.765625 3.863281 -4.125 3.90625 -3.84375 Z M 9.234375 -36.03125 C 9.390625 -36.050781 9.664062 -36.039062 10.0625 -36 C 10.457031 -35.957031 10.859375 -35.878906 11.265625 -35.765625 C 11.671875 -35.660156 12.023438 -35.519531 12.328125 -35.34375 C 12.628906 -35.175781 12.800781 -34.972656 12.84375 -34.734375 C 12.894531 -34.429688 12.800781 -34.015625 12.5625 -33.484375 C 12.320312 -32.953125 12.023438 -32.421875 11.671875 -31.890625 C 11.328125 -31.359375 10.960938 -30.890625 10.578125 -30.484375 C 10.191406 -30.085938 9.867188 -29.867188 9.609375 -29.828125 C 9.148438 -29.753906 8.613281 -29.957031 8 -30.4375 C 7.394531 -30.925781 7.054688 -31.398438 6.984375 -31.859375 C 6.960938 -31.984375 7.039062 -32.265625 7.21875 -32.703125 C 7.40625 -33.148438 7.625 -33.617188 7.875 -34.109375 C 8.125 -34.597656 8.378906 -35.035156 8.640625 -35.421875 C 8.910156 -35.804688 9.109375 -36.007812 9.234375 -36.03125 Z M 9.234375 -36.03125 "/></g></g></g><g fill="#6d8cd3" fill-opacity="1"><g transform="translate(88.675725, 212.244453)"><g><path d="M 10.125 -1.21875 C 9.976562 -2.738281 10.140625 -4.285156 10.609375 -5.859375 C 11.085938 -7.441406 11.675781 -9.03125 12.375 -10.625 C 13.082031 -12.21875 13.753906 -13.789062 14.390625 -15.34375 C 15.023438 -16.90625 15.421875 -18.4375 15.578125 -19.9375 L 15.15625 -20.046875 C 14.789062 -19.617188 14.238281 -18.828125 13.5 -17.671875 C 12.757812 -16.523438 11.925781 -15.195312 11 -13.6875 C 10.070312 -12.1875 9.109375 -10.640625 8.109375 -9.046875 C 7.117188 -7.460938 6.191406 -5.988281 5.328125 -4.625 C 4.472656 -3.257812 3.757812 -2.144531 3.1875 -1.28125 C 2.613281 -0.414062 2.285156 0.0195312 2.203125 0.03125 C 1.953125 0.0703125 1.679688 0 1.390625 -0.1875 C 1.097656 -0.375 0.84375 -0.625 0.625 -0.9375 C 0.414062 -1.25 0.226562 -1.570312 0.0625 -1.90625 C -0.101562 -2.25 -0.203125 -2.523438 -0.234375 -2.734375 C -0.285156 -3.066406 -0.203125 -3.679688 0.015625 -4.578125 C 0.242188 -5.472656 0.550781 -6.53125 0.9375 -7.75 C 1.332031 -8.976562 1.769531 -10.285156 2.25 -11.671875 C 2.738281 -13.066406 3.207031 -14.410156 3.65625 -15.703125 C 4.101562 -17.003906 4.492188 -18.195312 4.828125 -19.28125 C 5.171875 -20.363281 5.40625 -21.191406 5.53125 -21.765625 C 5.59375 -21.960938 5.632812 -22.1875 5.65625 -22.4375 C 5.675781 -22.695312 5.816406 -22.847656 6.078125 -22.890625 C 6.484375 -22.960938 7.015625 -22.78125 7.671875 -22.34375 C 8.328125 -21.90625 8.691406 -21.457031 8.765625 -21 C 8.816406 -20.65625 8.734375 -19.992188 8.515625 -19.015625 C 8.304688 -18.035156 8.054688 -16.972656 7.765625 -15.828125 C 7.472656 -14.691406 7.191406 -13.59375 6.921875 -12.53125 C 6.660156 -11.476562 6.507812 -10.691406 6.46875 -10.171875 C 6.75 -10.484375 7.128906 -10.96875 7.609375 -11.625 C 8.085938 -12.28125 8.613281 -13.019531 9.1875 -13.84375 C 9.769531 -14.664062 10.359375 -15.507812 10.953125 -16.375 C 11.554688 -17.238281 12.109375 -18.046875 12.609375 -18.796875 C 13.117188 -19.546875 13.5625 -20.160156 13.9375 -20.640625 C 14.3125 -21.128906 14.554688 -21.425781 14.671875 -21.53125 C 15.359375 -22.03125 16.109375 -22.09375 16.921875 -21.71875 C 17.734375 -21.351562 18.1875 -20.617188 18.28125 -19.515625 C 18.351562 -18.242188 18.078125 -16.722656 17.453125 -14.953125 C 16.828125 -13.179688 16.125 -11.390625 15.34375 -9.578125 C 14.570312 -7.773438 13.878906 -6.082031 13.265625 -4.5 C 12.660156 -2.925781 12.429688 -1.679688 12.578125 -0.765625 C 13.078125 -0.929688 13.785156 -1.425781 14.703125 -2.25 C 15.628906 -3.082031 16.632812 -4.054688 17.71875 -5.171875 C 18.8125 -6.296875 19.925781 -7.5 21.0625 -8.78125 C 22.195312 -10.0625 23.25 -11.234375 24.21875 -12.296875 C 25.1875 -13.367188 26 -14.269531 26.65625 -15 C 27.320312 -15.726562 27.71875 -16.125 27.84375 -16.1875 L 28.78125 -15.5 C 28.488281 -15.113281 27.953125 -14.453125 27.171875 -13.515625 C 26.398438 -12.578125 25.492188 -11.5 24.453125 -10.28125 C 23.421875 -9.0625 22.3125 -7.796875 21.125 -6.484375 C 19.9375 -5.179688 18.773438 -3.976562 17.640625 -2.875 C 16.515625 -1.769531 15.484375 -0.84375 14.546875 -0.09375 C 13.609375 0.65625 12.890625 1.070312 12.390625 1.15625 C 12.003906 1.21875 11.664062 1.160156 11.375 0.984375 C 11.09375 0.804688 10.867188 0.59375 10.703125 0.34375 C 10.535156 0.09375 10.40625 -0.175781 10.3125 -0.46875 C 10.21875 -0.757812 10.15625 -1.007812 10.125 -1.21875 Z M 10.125 -1.21875 "/></g></g></g><g fill="#6d8cd3" fill-opacity="1"><g transform="translate(113.846203, 208.276768)"><g><path d="M -2.25 -1.96875 C -1.707031 -4.207031 -1.238281 -6.226562 -0.84375 -8.03125 C -0.457031 -9.832031 -0.101562 -11.597656 0.21875 -13.328125 C 0.550781 -15.054688 0.863281 -16.8125 1.15625 -18.59375 C 1.457031 -20.382812 1.796875 -22.40625 2.171875 -24.65625 C 2.242188 -25.0625 2.296875 -25.503906 2.328125 -25.984375 C 2.359375 -26.460938 2.664062 -26.75 3.25 -26.84375 C 4.050781 -26.96875 4.769531 -26.914062 5.40625 -26.6875 C 6.039062 -26.46875 6.304688 -25.859375 6.203125 -24.859375 C 6.023438 -22.984375 5.75 -21.3125 5.375 -19.84375 C 5.007812 -18.382812 4.632812 -16.957031 4.25 -15.5625 C 3.875 -14.175781 3.5 -12.753906 3.125 -11.296875 C 2.75 -9.835938 2.472656 -8.164062 2.296875 -6.28125 L 2.28125 -5.640625 C 2.8125 -6.328125 3.632812 -7.425781 4.75 -8.9375 C 5.875 -10.445312 7.125 -12.125 8.5 -13.96875 C 9.882812 -15.820312 11.347656 -17.726562 12.890625 -19.6875 C 14.441406 -21.65625 15.9375 -23.460938 17.375 -25.109375 C 18.8125 -26.765625 20.140625 -28.140625 21.359375 -29.234375 C 22.578125 -30.328125 23.546875 -30.929688 24.265625 -31.046875 C 24.597656 -31.097656 24.882812 -31.03125 25.125 -30.84375 C 25.375 -30.664062 25.484375 -30.410156 25.453125 -30.078125 C 24.242188 -28.671875 22.84375 -27.296875 21.25 -25.953125 C 19.664062 -24.609375 18.203125 -23.269531 16.859375 -21.9375 C 13.867188 -19.0625 11.289062 -15.96875 9.125 -12.65625 C 6.96875 -9.351562 4.847656 -5.988281 2.765625 -2.5625 C 2.671875 -2.375 2.488281 -2.078125 2.21875 -1.671875 C 1.945312 -1.265625 1.660156 -0.863281 1.359375 -0.46875 C 1.054688 -0.0820312 0.757812 0.269531 0.46875 0.59375 C 0.1875 0.914062 -0.0625 1.097656 -0.28125 1.140625 C -0.476562 1.171875 -0.710938 1.085938 -0.984375 0.890625 C -1.253906 0.703125 -1.488281 0.457031 -1.6875 0.15625 C -1.882812 -0.132812 -2.050781 -0.4375 -2.1875 -0.75 C -2.320312 -1.070312 -2.382812 -1.34375 -2.375 -1.5625 Z M -2.25 -1.96875 "/></g></g></g><g fill="#6d8cd3" fill-opacity="1"><g transform="translate(135.2411, 204.904238)"><g><path d="M 3.90625 -3.84375 C 4.144531 -3.957031 4.613281 -4.316406 5.3125 -4.921875 C 6.007812 -5.535156 6.828125 -6.269531 7.765625 -7.125 C 8.710938 -7.988281 9.707031 -8.910156 10.75 -9.890625 C 11.800781 -10.867188 12.78125 -11.765625 13.6875 -12.578125 C 14.601562 -13.390625 15.367188 -14.066406 15.984375 -14.609375 C 16.597656 -15.148438 16.972656 -15.429688 17.109375 -15.453125 C 17.316406 -15.492188 17.5 -15.550781 17.65625 -15.625 C 17.820312 -15.695312 17.960938 -15.648438 18.078125 -15.484375 C 18.023438 -15.265625 17.617188 -14.726562 16.859375 -13.875 C 16.109375 -13.03125 15.191406 -12.035156 14.109375 -10.890625 C 13.023438 -9.753906 11.851562 -8.550781 10.59375 -7.28125 C 9.34375 -6.007812 8.15625 -4.832031 7.03125 -3.75 C 5.90625 -2.675781 4.9375 -1.78125 4.125 -1.0625 C 3.320312 -0.351562 2.851562 0.0078125 2.71875 0.03125 C 2.34375 0.09375 1.96875 0.046875 1.59375 -0.109375 C 1.21875 -0.273438 0.878906 -0.503906 0.578125 -0.796875 C 0.273438 -1.085938 0.0195312 -1.421875 -0.1875 -1.796875 C -0.394531 -2.179688 -0.53125 -2.566406 -0.59375 -2.953125 C -0.707031 -3.660156 -0.679688 -4.632812 -0.515625 -5.875 C -0.347656 -7.125 -0.113281 -8.429688 0.1875 -9.796875 C 0.488281 -11.160156 0.8125 -12.472656 1.15625 -13.734375 C 1.5 -14.992188 1.78125 -16.003906 2 -16.765625 C 2.082031 -17.035156 2.265625 -17.644531 2.546875 -18.59375 C 2.828125 -19.539062 3.128906 -20.535156 3.453125 -21.578125 C 3.785156 -22.617188 4.113281 -23.550781 4.4375 -24.375 C 4.769531 -25.195312 5.019531 -25.625 5.1875 -25.65625 C 5.894531 -25.769531 6.601562 -25.632812 7.3125 -25.25 C 8.019531 -24.863281 8.523438 -24.351562 8.828125 -23.71875 C 8.691406 -23.300781 8.457031 -22.570312 8.125 -21.53125 C 7.789062 -20.5 7.441406 -19.296875 7.078125 -17.921875 C 6.710938 -16.554688 6.328125 -15.109375 5.921875 -13.578125 C 5.523438 -12.054688 5.160156 -10.625 4.828125 -9.28125 C 4.503906 -7.9375 4.257812 -6.765625 4.09375 -5.765625 C 3.925781 -4.765625 3.863281 -4.125 3.90625 -3.84375 Z M 9.234375 -36.03125 C 9.390625 -36.050781 9.664062 -36.039062 10.0625 -36 C 10.457031 -35.957031 10.859375 -35.878906 11.265625 -35.765625 C 11.671875 -35.660156 12.023438 -35.519531 12.328125 -35.34375 C 12.628906 -35.175781 12.800781 -34.972656 12.84375 -34.734375 C 12.894531 -34.429688 12.800781 -34.015625 12.5625 -33.484375 C 12.320312 -32.953125 12.023438 -32.421875 11.671875 -31.890625 C 11.328125 -31.359375 10.960938 -30.890625 10.578125 -30.484375 C 10.191406 -30.085938 9.867188 -29.867188 9.609375 -29.828125 C 9.148438 -29.753906 8.613281 -29.957031 8 -30.4375 C 7.394531 -30.925781 7.054688 -31.398438 6.984375 -31.859375 C 6.960938 -31.984375 7.039062 -32.265625 7.21875 -32.703125 C 7.40625 -33.148438 7.625 -33.617188 7.875 -34.109375 C 8.125 -34.597656 8.378906 -35.035156 8.640625 -35.421875 C 8.910156 -35.804688 9.109375 -36.007812 9.234375 -36.03125 Z M 9.234375 -36.03125 "/></g></g></g><g fill="#6d8cd3" fill-opacity="1"><g transform="translate(150.909721, 202.434354)"><g><path d="M -0.46875 2.71875 C -0.84375 0.332031 -0.867188 -2.226562 -0.546875 -4.96875 C -0.234375 -7.707031 0.222656 -10.476562 0.828125 -13.28125 C 1.441406 -16.09375 2.113281 -18.867188 2.84375 -21.609375 C 3.582031 -24.347656 4.171875 -26.914062 4.609375 -29.3125 L 4.65625 -29.765625 L 4.3125 -29.953125 C 3.6875 -29.847656 3.078125 -29.65625 2.484375 -29.375 C 1.898438 -29.101562 1.296875 -28.914062 0.671875 -28.8125 C 0.0859375 -28.726562 -0.410156 -28.882812 -0.828125 -29.28125 C -1.253906 -29.6875 -1.515625 -30.160156 -1.609375 -30.703125 C -1.648438 -30.960938 -1.476562 -31.226562 -1.09375 -31.5 C -0.707031 -31.769531 -0.265625 -32.019531 0.234375 -32.25 C 0.734375 -32.476562 1.222656 -32.6875 1.703125 -32.875 C 2.191406 -33.070312 2.546875 -33.1875 2.765625 -33.21875 C 3.972656 -33.40625 4.828125 -33.878906 5.328125 -34.640625 C 5.835938 -35.410156 6.1875 -36.207031 6.375 -37.03125 C 6.570312 -37.851562 6.691406 -38.613281 6.734375 -39.3125 C 6.773438 -40.019531 6.960938 -40.398438 7.296875 -40.453125 C 7.753906 -40.523438 8.316406 -40.4375 8.984375 -40.1875 C 9.648438 -39.9375 10.023438 -39.539062 10.109375 -39 C 10.179688 -38.539062 10.132812 -38.09375 9.96875 -37.65625 C 9.800781 -37.226562 9.742188 -36.84375 9.796875 -36.5 C 9.847656 -36.164062 9.988281 -35.960938 10.21875 -35.890625 C 10.445312 -35.816406 10.679688 -35.800781 10.921875 -35.84375 C 12.316406 -36.0625 13.679688 -36.4375 15.015625 -36.96875 C 16.347656 -37.5 17.707031 -37.875 19.09375 -38.09375 C 19.382812 -38.132812 19.71875 -38.097656 20.09375 -37.984375 C 20.476562 -37.878906 20.835938 -37.722656 21.171875 -37.515625 C 21.503906 -37.316406 21.800781 -37.066406 22.0625 -36.765625 C 22.320312 -36.460938 22.476562 -36.160156 22.53125 -35.859375 C 22.582031 -35.515625 22.296875 -35.210938 21.671875 -34.953125 C 21.054688 -34.691406 20.25 -34.4375 19.25 -34.1875 C 18.257812 -33.945312 17.179688 -33.703125 16.015625 -33.453125 C 14.859375 -33.203125 13.757812 -32.953125 12.71875 -32.703125 C 11.675781 -32.453125 10.78125 -32.171875 10.03125 -31.859375 C 9.289062 -31.554688 8.863281 -31.222656 8.75 -30.859375 C 8.46875 -29.953125 8.101562 -28.59375 7.65625 -26.78125 C 7.207031 -24.96875 6.726562 -22.957031 6.21875 -20.75 C 5.707031 -18.539062 5.203125 -16.226562 4.703125 -13.8125 C 4.203125 -11.394531 3.765625 -9.09375 3.390625 -6.90625 C 3.023438 -4.71875 2.75 -2.765625 2.5625 -1.046875 C 2.375 0.660156 2.347656 1.914062 2.484375 2.71875 C 2.523438 3.039062 2.71875 3.175781 3.0625 3.125 C 3.488281 3.050781 4.082031 2.570312 4.84375 1.6875 C 5.601562 0.800781 6.429688 -0.28125 7.328125 -1.5625 C 8.222656 -2.851562 9.164062 -4.25 10.15625 -5.75 C 11.144531 -7.257812 12.09375 -8.671875 13 -9.984375 C 13.914062 -11.296875 14.734375 -12.394531 15.453125 -13.28125 C 16.171875 -14.164062 16.742188 -14.644531 17.171875 -14.71875 L 18.0625 -14.328125 C 17.71875 -13.804688 17.164062 -12.945312 16.40625 -11.75 C 15.644531 -10.550781 14.757812 -9.203125 13.75 -7.703125 C 12.738281 -6.210938 11.660156 -4.671875 10.515625 -3.078125 C 9.367188 -1.484375 8.265625 -0.0195312 7.203125 1.3125 C 6.140625 2.644531 5.160156 3.753906 4.265625 4.640625 C 3.378906 5.535156 2.710938 6.019531 2.265625 6.09375 C 1.835938 6.164062 1.460938 6.085938 1.140625 5.859375 C 0.828125 5.628906 0.554688 5.335938 0.328125 4.984375 C 0.109375 4.628906 -0.0625 4.25 -0.1875 3.84375 C -0.320312 3.4375 -0.414062 3.0625 -0.46875 2.71875 Z M -0.46875 2.71875 "/></g></g></g><g fill="#6d8cd3" fill-opacity="1"><g transform="translate(167.585156, 199.805765)"><g><path d="M 4.3125 -0.09375 C 3.425781 0.0078125 2.65625 -0.0859375 2 -0.390625 C 1.34375 -0.703125 0.8125 -1.140625 0.40625 -1.703125 C 0 -2.265625 -0.3125 -2.894531 -0.53125 -3.59375 C -0.75 -4.289062 -0.875 -5 -0.90625 -5.71875 C -0.96875 -6.957031 -0.796875 -8.394531 -0.390625 -10.03125 C 0.015625 -11.664062 0.582031 -13.226562 1.3125 -14.71875 C 2.050781 -16.207031 2.910156 -17.5 3.890625 -18.59375 C 4.878906 -19.695312 5.941406 -20.34375 7.078125 -20.53125 C 8.128906 -20.6875 9.082031 -20.378906 9.9375 -19.609375 C 10.789062 -18.847656 11.296875 -17.960938 11.453125 -16.953125 C 11.585938 -16.078125 11.394531 -15.039062 10.875 -13.84375 C 10.363281 -12.644531 9.707031 -11.507812 8.90625 -10.4375 C 8.101562 -9.363281 7.242188 -8.429688 6.328125 -7.640625 C 5.421875 -6.859375 4.65625 -6.421875 4.03125 -6.328125 C 3.820312 -6.285156 3.613281 -6.300781 3.40625 -6.375 C 3.207031 -6.445312 3.019531 -6.507812 2.84375 -6.5625 C 2.613281 -6.320312 2.488281 -5.992188 2.46875 -5.578125 C 2.457031 -5.171875 2.507812 -4.769531 2.625 -4.375 C 2.75 -3.988281 2.941406 -3.664062 3.203125 -3.40625 C 3.460938 -3.144531 3.800781 -3.046875 4.21875 -3.109375 C 4.96875 -3.234375 5.84375 -3.597656 6.84375 -4.203125 C 7.84375 -4.816406 8.914062 -5.578125 10.0625 -6.484375 C 11.21875 -7.390625 12.394531 -8.390625 13.59375 -9.484375 C 14.800781 -10.585938 15.941406 -11.675781 17.015625 -12.75 C 18.097656 -13.820312 19.085938 -14.835938 19.984375 -15.796875 C 20.878906 -16.753906 21.601562 -17.554688 22.15625 -18.203125 L 22.703125 -18.421875 L 22.71875 -18.359375 L 22.953125 -18.0625 L 22.953125 -18 C 22.367188 -17.132812 21.628906 -16.113281 20.734375 -14.9375 C 19.835938 -13.757812 18.863281 -12.53125 17.8125 -11.25 C 16.769531 -9.976562 15.675781 -8.703125 14.53125 -7.421875 C 13.382812 -6.140625 12.226562 -4.972656 11.0625 -3.921875 C 9.894531 -2.878906 8.726562 -2.007812 7.5625 -1.3125 C 6.394531 -0.625 5.3125 -0.21875 4.3125 -0.09375 Z M 4.734375 -11.328125 C 5.492188 -11.921875 6.171875 -12.585938 6.765625 -13.328125 C 7.359375 -14.066406 7.816406 -14.914062 8.140625 -15.875 L 8.140625 -15.9375 L 8.09375 -16.1875 C 7.78125 -15.96875 7.453125 -15.65625 7.109375 -15.25 C 6.765625 -14.851562 6.414062 -14.410156 6.0625 -13.921875 C 5.707031 -13.429688 5.394531 -12.945312 5.125 -12.46875 C 4.851562 -12 4.660156 -11.609375 4.546875 -11.296875 Z M 4.734375 -11.328125 "/></g></g></g></svg>